<svg width="82" height="82" viewBox="0 0 82 82" fill="none" xmlns="http://www.w3.org/2000/svg">
<path d="M26.9062 14.8145H75.1133C75.5555 14.8145 75.9141 15.173 75.9141 15.6152V79.998C75.9141 80.4402 75.5555 80.7988 75.1133 80.7988H26.9062C26.4641 80.7988 26.1055 80.4402 26.1055 79.998V15.6152C26.1055 15.173 26.4641 14.8145 26.9062 14.8145Z" fill="#F5F5F5"/>
<path d="M72.3105 14.8145V76.3945C72.3105 76.8366 71.9518 77.1953 71.5098 77.1953H26.1055V15.6152C26.1055 15.1732 26.4642 14.8145 26.9062 14.8145H72.3105Z" fill="#E6E6E6"/>
<path d="M68.3066 8.00781H20.0996C19.6574 8.00781 19.2988 8.3664 19.2988 8.80859V73.1914C19.2988 73.6336 19.6574 73.9922 20.0996 73.9922H68.3066C68.7488 73.9922 69.1074 73.6336 69.1074 73.1914V8.80859C69.1074 8.3664 68.7488 8.00781 68.3066 8.00781Z" fill="#F5F5F5"/>
<path d="M65.5039 8.00781V69.5879C65.5039 70.0299 65.1452 70.3887 64.7031 70.3887H19.2988V8.80859C19.2988 8.36656 19.6576 8.00781 20.0996 8.00781H65.5039Z" fill="#E6E6E6"/>
<path d="M62.3008 2.00195V66.3848C62.3008 66.8268 61.942 67.1855 61.5 67.1855H14.0938C9.67184 67.1855 6.08594 63.5996 6.08594 59.1777V57.0957C6.08594 56.6537 6.44469 56.2949 6.88672 56.2949H11.6914C11.701 56.2949 11.709 56.2949 11.7186 56.2933C12.1479 56.2805 12.4922 55.9266 12.4922 55.4941V2.00195C12.4922 1.55992 12.8509 1.20117 13.293 1.20117H61.5C61.942 1.20117 62.3008 1.55992 62.3008 2.00195Z" fill="#F5F5F5"/>
<path d="M32.6719 24.4238H18.8984C18.4562 24.4238 18.0977 24.0652 18.0977 23.623V9.84961C18.0977 9.40742 18.4562 9.04883 18.8984 9.04883H32.6719C33.1141 9.04883 33.4727 9.40742 33.4727 9.84961V23.623C33.4727 24.0652 33.1141 24.4238 32.6719 24.4238Z" fill="#2BFC2B"/>
<path d="M56.6953 23.543H39.0781C38.4148 23.543 37.877 23.0052 37.877 22.3418C37.877 21.6784 38.4148 21.1406 39.0781 21.1406H56.6953C57.3587 21.1406 57.8965 21.6784 57.8965 22.3418C57.8965 23.0052 57.3587 23.543 56.6953 23.543Z" fill="#2B597F"/>
<path d="M46.2852 34.4336H28.5078C27.8444 34.4336 27.3066 33.8958 27.3066 33.2324C27.3066 32.5691 27.8444 32.0312 28.5078 32.0312H46.2852C46.9485 32.0312 47.4863 32.5691 47.4863 33.2324C47.4863 33.8958 46.9485 34.4336 46.2852 34.4336Z" fill="#2B597F"/>
<path d="M56.6953 17.9375H39.0781C38.4148 17.9375 37.877 17.3997 37.877 16.7363C37.877 16.073 38.4148 15.5352 39.0781 15.5352H56.6953C57.3587 15.5352 57.8965 16.073 57.8965 16.7363C57.8965 17.3997 57.3587 17.9375 56.6953 17.9375Z" fill="#2B597F"/>
<path d="M56.6953 12.332H39.0781C38.4148 12.332 37.877 11.7942 37.877 11.1309C37.877 10.4675 38.4148 9.92969 39.0781 9.92969H56.6953C57.3587 9.92969 57.8965 10.4675 57.8965 11.1309C57.8965 11.7942 57.3587 12.332 56.6953 12.332Z" fill="#2B597F"/>
<path d="M56.6953 48.6875H18.0977C17.4343 48.6875 16.8965 48.1497 16.8965 47.4863C16.8965 46.823 17.4343 46.2852 18.0977 46.2852H56.6953C57.3587 46.2852 57.8965 46.823 57.8965 47.4863C57.8965 48.1497 57.3587 48.6875 56.6953 48.6875Z" fill="#2B597F"/>
<path d="M56.6953 41.4805H35.7148C35.0515 41.4805 34.5137 40.9427 34.5137 40.2793C34.5137 39.6159 35.0515 39.0781 35.7148 39.0781H56.6953C57.3587 39.0781 57.8965 39.6159 57.8965 40.2793C57.8965 40.9427 57.3587 41.4805 56.6953 41.4805Z" fill="#2B597F"/>
<path d="M30.1094 41.4805H18.0176C17.3542 41.4805 16.8164 40.9427 16.8164 40.2793C16.8164 39.6159 17.3542 39.0781 18.0176 39.0781H30.1094C30.7727 39.0781 31.3105 39.6159 31.3105 40.2793C31.3105 40.9427 30.7727 41.4805 30.1094 41.4805Z" fill="#2B597F"/>
<path d="M54.4179 67.1854H14.0938C9.6712 67.1854 6.08594 63.6002 6.08594 59.1776V57.0956C6.08594 56.6534 6.44453 56.2948 6.88672 56.2948H11.6914C11.701 56.2948 11.709 56.2948 11.7186 56.2932H45.6894C46.1316 56.2932 46.4902 56.6518 46.4902 57.094V59.1776C46.4902 63.5723 50.0328 67.1438 54.4179 67.1854Z" fill="#2BFC2B"/>
<path d="M75.9141 13.6133H70.3086V8.00781C70.3086 7.34429 69.7708 6.80664 69.1074 6.80664H63.502V1.20117C63.502 0.537645 62.9641 0 62.3008 0H12.4922C11.8288 0 11.291 0.537645 11.291 1.20117V55.0938H6.08594C5.42257 55.0938 4.88477 55.6314 4.88477 56.2949V59.1777C4.88477 64.2556 9.01584 68.3867 14.0938 68.3867H18.0977V73.9922C18.0977 74.6557 18.6355 75.1934 19.2988 75.1934H24.9043V80.7988C24.9043 81.4624 25.4421 82 26.1055 82H50.209C50.8724 82 51.4102 81.4624 51.4102 80.7988C51.4102 80.1353 50.8724 79.5977 50.209 79.5977H27.3066V75.1934H69.1074C69.7708 75.1934 70.3086 74.6557 70.3086 73.9922V55.0938C70.3086 54.4302 69.7708 53.8926 69.1074 53.8926C68.4441 53.8926 67.9062 54.4302 67.9062 55.0938V72.791H20.5V68.3867H62.3008C62.9641 68.3867 63.502 67.8491 63.502 67.1855V9.20898H67.9062V49.6484C67.9062 50.312 68.4441 50.8496 69.1074 50.8496C69.7708 50.8496 70.3086 50.312 70.3086 49.6484V16.0156H74.7129V79.5977H55.6543C54.9909 79.5977 54.4531 80.1353 54.4531 80.7988C54.4531 81.4624 54.9909 82 55.6543 82H75.9141C76.5774 82 77.1152 81.4624 77.1152 80.7988V14.8145C77.1152 14.1509 76.5774 13.6133 75.9141 13.6133ZM61.0996 65.9844H54.4531C50.6999 65.9844 47.6465 62.931 47.6465 59.1777V56.2949C47.6465 55.6314 47.1087 55.0938 46.4453 55.0938H38.1172C37.4538 55.0938 36.916 55.6314 36.916 56.2949C36.916 56.9585 37.4538 57.4961 38.1172 57.4961H45.2441V59.1777C45.2441 61.8717 46.407 64.2989 48.2568 65.9844H14.0938C10.3405 65.9844 7.28711 62.931 7.28711 59.1777V57.4961H32.5117C33.1751 57.4961 33.7129 56.9585 33.7129 56.2949C33.7129 55.6314 33.1751 55.0938 32.5117 55.0938H13.6934V2.40234H61.0996V65.9844Z" fill="black"/>
<path d="M18.0977 25.625H33.4727C34.136 25.625 34.6738 25.0874 34.6738 24.4238V9.04883C34.6738 8.3853 34.136 7.84766 33.4727 7.84766H18.0977C17.4343 7.84766 16.8965 8.3853 16.8965 9.04883V24.4238C16.8965 25.0874 17.4343 25.625 18.0977 25.625ZM19.2988 10.25H32.2715V23.2227H19.2988V10.25Z" fill="black"/>
<path d="M56.6953 21.1406H39.0781C38.4148 21.1406 37.877 21.6783 37.877 22.3418C37.877 23.0053 38.4148 23.543 39.0781 23.543H56.6953C57.3587 23.543 57.8965 23.0053 57.8965 22.3418C57.8965 21.6783 57.3587 21.1406 56.6953 21.1406Z" fill="black"/>
<path d="M27.3066 33.2324C27.3066 33.8959 27.8444 34.4336 28.5078 34.4336H46.2852C46.9485 34.4336 47.4863 33.8959 47.4863 33.2324C47.4863 32.5689 46.9485 32.0312 46.2852 32.0312H28.5078C27.8444 32.0312 27.3066 32.5689 27.3066 33.2324Z" fill="black"/>
<path d="M56.6953 15.5352H39.0781C38.4148 15.5352 37.877 16.0728 37.877 16.7363C37.877 17.3999 38.4148 17.9375 39.0781 17.9375H56.6953C57.3587 17.9375 57.8965 17.3999 57.8965 16.7363C57.8965 16.0728 57.3587 15.5352 56.6953 15.5352Z" fill="black"/>
<path d="M56.6953 9.92969H39.0781C38.4148 9.92969 37.877 10.4673 37.877 11.1309C37.877 11.7944 38.4148 12.332 39.0781 12.332H56.6953C57.3587 12.332 57.8965 11.7944 57.8965 11.1309C57.8965 10.4673 57.3587 9.92969 56.6953 9.92969Z" fill="black"/>
<path d="M56.6953 46.2852H18.0977C17.4343 46.2852 16.8965 46.8228 16.8965 47.4863C16.8965 48.1499 17.4343 48.6875 18.0977 48.6875H56.6953C57.3587 48.6875 57.8965 48.1499 57.8965 47.4863C57.8965 46.8228 57.3587 46.2852 56.6953 46.2852Z" fill="black"/>
<path d="M56.6953 39.0781H35.7148C35.0515 39.0781 34.5137 39.6158 34.5137 40.2793C34.5137 40.9428 35.0515 41.4805 35.7148 41.4805H56.6953C57.3587 41.4805 57.8965 40.9428 57.8965 40.2793C57.8965 39.6158 57.3587 39.0781 56.6953 39.0781Z" fill="black"/>
<path d="M18.0176 41.4805H30.1094C30.7727 41.4805 31.3105 40.9428 31.3105 40.2793C31.3105 39.6158 30.7727 39.0781 30.1094 39.0781H18.0176C17.3542 39.0781 16.8164 39.6158 16.8164 40.2793C16.8164 40.9428 17.3542 41.4805 18.0176 41.4805Z" fill="black"/>
</svg>
