<svg width="52" height="53" viewBox="0 0 52 53" fill="none" xmlns="http://www.w3.org/2000/svg">
<g clip-path="url(#clip0)">
<circle cx="26.5" cy="9.83911" r="8.5" fill="#2BFC2B"/>
<path d="M27.9999 16.8391C27.9999 21.5335 24.1943 25.3391 19.4999 25.3391C18.9999 23.8391 18.8702 22.7851 17.4999 21.8391C15.2787 20.3057 9.99988 20.8391 10.9999 16.8391C10.9999 12.1447 14.8055 8.33911 19.4999 8.33911C24.1943 8.33911 27.9999 12.1447 27.9999 16.8391Z" fill="#2BFC2B"/>
<rect x="24.344" y="16.4033" width="11.6682" height="9.39941" transform="rotate(42.4485 24.344 16.4033)" fill="#2BFC2B"/>
<path d="M42 16.8391C41.5 22.3391 36.5321 19.8017 35 21.3391C33.461 22.8834 33.5 23.3391 32.5 24.8391C27.8056 24.8391 25 21.5335 25 16.8391C25 12.1447 28.8056 8.33911 33.5 8.33911C38.1944 8.33911 42 12.1447 42 16.8391Z" fill="#2BFC2B"/>
<path d="M8.9375 42.5891C10.1734 42.5891 11.3769 42.3206 12.4922 41.8044V50.3079H4.36719C3.80636 50.3079 3.35156 50.7626 3.35156 51.3235C3.35156 51.8844 3.80636 52.3391 4.36719 52.3391H47.6328C48.1936 52.3391 48.6484 51.8844 48.6484 51.3235C48.6484 50.7626 48.1936 50.3079 47.6328 50.3079H39.5078V41.8044C40.6231 42.3206 41.8266 42.5891 43.0625 42.5891C47.9071 42.5891 52 38.6358 52 33.9563C52 30.2242 49.2886 26.8048 45.5721 25.6954C45.3568 23.347 43.9748 21.2479 41.9259 20.1138C42.3429 18.9915 42.5547 17.8102 42.5547 16.5891C42.5547 15.7514 42.452 14.919 42.2495 14.1147C42.1124 13.5708 41.5602 13.2408 41.0166 13.3778C40.4728 13.5147 40.1428 14.0667 40.2797 14.6107C40.4414 15.253 40.5234 15.9185 40.5234 16.5891C40.5234 17.5622 40.3558 18.5029 40.0256 19.3963C39.5243 19.2859 39.0115 19.2297 38.4922 19.2297C34.7888 19.2297 31.7378 22.0757 31.4117 25.6956C29.6653 26.217 28.141 27.2487 27.0156 28.5831V20.2773L32.8352 17.506C33.3415 17.2648 33.5567 16.6588 33.3154 16.1524C33.0742 15.6459 32.468 15.4309 31.9618 15.6721L27.0156 18.0274V10.4954C27.0156 9.93443 26.5608 9.47974 26 9.47974C25.4392 9.47974 24.9844 9.93443 24.9844 10.4954V14.9806L20.0383 12.6252C19.5317 12.3842 18.9258 12.599 18.6847 13.1055C18.4434 13.6119 18.6585 14.218 19.1649 14.4591L24.9845 17.2304V28.5831C23.8591 27.2487 22.3348 26.217 20.5884 25.6956C20.2622 22.0757 17.2112 19.2297 13.5078 19.2297C12.9886 19.2297 12.4757 19.2859 11.9744 19.3963C11.6442 18.503 11.4766 17.5622 11.4766 16.5891C11.4766 12.567 14.3761 9.20399 18.3709 8.59259C18.7985 8.52718 19.1377 8.19812 19.2161 7.77267C19.7742 4.74337 22.7541 2.37036 26 2.37036C29.2459 2.37036 32.2258 4.74337 32.7839 7.77267C32.8623 8.19802 33.2015 8.52718 33.6291 8.59259C34.0446 8.65617 34.4579 8.75265 34.8581 8.8792C35.3929 9.0486 35.9636 8.75224 36.1329 8.21742C36.3021 7.68269 36.0058 7.11191 35.471 6.9427C35.1924 6.85455 34.9088 6.77807 34.6222 6.71399C33.5996 3.03448 30.0167 0.339111 26 0.339111C21.9833 0.339111 18.4004 3.03458 17.3778 6.71399C12.7847 7.74413 9.44531 11.8057 9.44531 16.5891C9.44531 17.8102 9.65707 18.9915 10.074 20.1137C8.02527 21.2478 6.6431 23.3469 6.42789 25.6954C2.71141 26.8048 0 30.2242 0 33.9563C0 38.6358 4.09287 42.5891 8.9375 42.5891ZM14.5234 41.8044C15.6387 42.3206 16.8422 42.5891 18.0781 42.5891C20.8251 42.5891 23.3298 41.3179 24.9844 39.3642V50.3079H14.5234V41.8044ZM27.0156 50.3079V39.3642C28.6702 41.3179 31.1749 42.5891 33.9219 42.5891C35.1578 42.5891 36.3613 42.3206 37.4766 41.8044V50.3079H27.0156ZM32.6138 27.4872C33.1051 27.3885 33.5035 26.9337 33.4143 26.2937C33.4388 23.5145 35.7073 21.261 38.4922 21.261C41.2972 21.261 43.5453 23.533 43.5701 26.2937C43.4815 26.9289 43.8743 27.3875 44.3706 27.4872C47.5621 28.1282 49.9688 30.9094 49.9688 33.9563C49.9688 37.5348 46.806 40.5579 43.0625 40.5579C41.8029 40.5579 40.5838 40.1889 39.5078 39.4878V36.1074L45.0401 33.3412C45.5418 33.0904 45.7452 32.4803 45.4944 31.9786C45.2435 31.4769 44.6331 31.2734 44.1319 31.5244L39.5078 33.8365C39.5078 32.9812 39.5078 27.642 39.5078 26.3391C39.5078 25.7782 39.053 25.3235 38.4922 25.3235C37.9314 25.3235 37.4766 25.7782 37.4766 26.3391V29.9808L36.1635 28.6677C35.7668 28.2712 35.1239 28.2712 34.7271 28.6677C34.3305 29.0643 34.3305 29.7074 34.7271 30.1041L37.4766 32.8536V39.4878C36.4006 40.1889 35.1815 40.5579 33.9219 40.5579C30.1784 40.5579 27.0156 37.5348 27.0156 33.9563C27.0156 30.9094 29.4222 28.1282 32.6138 27.4872ZM7.62938 27.4872C8.12023 27.3886 8.51927 26.9347 8.42989 26.2937C8.45467 23.5329 10.7004 21.261 13.5078 21.261C16.2927 21.261 18.5612 23.5145 18.5857 26.2937C18.497 26.9298 18.8911 27.3877 19.3862 27.4872C22.5778 28.1282 24.9844 30.9094 24.9844 33.9563C24.9844 37.5348 21.8216 40.5579 18.0781 40.5579C16.8185 40.5579 15.5994 40.1889 14.5234 39.4878V38.9474L17.2728 36.198C17.6694 35.8014 17.6694 35.1583 17.2728 34.7616C16.8761 34.3651 16.2332 34.3651 15.8364 34.7616L14.5234 36.0746V29.386C14.5234 28.8251 14.0686 28.3704 13.5078 28.3704C12.947 28.3704 12.4922 28.8251 12.4922 29.386V33.8365L7.86825 31.5245C7.36653 31.2736 6.75655 31.477 6.50569 31.9787C6.25483 32.4804 6.45816 33.0905 6.95998 33.3413L12.4922 36.1074V39.4877C11.4162 40.1889 10.1971 40.5579 8.9375 40.5579C5.19401 40.5579 2.03125 37.5348 2.03125 33.9563C2.03125 30.9094 4.43788 28.1282 7.62938 27.4872Z" fill="#293329"/>
<path d="M39 11.4094C39.5609 11.4094 40.0156 10.9547 40.0156 10.3938C40.0156 9.83288 39.5609 9.37817 39 9.37817C38.4391 9.37817 37.9844 9.83288 37.9844 10.3938C37.9844 10.9547 38.4391 11.4094 39 11.4094Z" fill="#293329"/>
</g>
<defs>
<clipPath id="clip0">
<rect width="52" height="52" fill="white" transform="translate(0 0.339111)"/>
</clipPath>
</defs>
</svg>
