<svg width="52" height="53" viewBox="0 0 52 53" fill="none" xmlns="http://www.w3.org/2000/svg">
<g clip-path="url(#clip0)">
<path d="M22 7.33911H30L28.5 28.3391H23.5L22 7.33911Z" fill="#2BFC2B"/>
<path d="M9.5 14.3391L14 11.3391L16 19.8391L15.5 28.3391H10.5V19.8391L9.5 14.3391Z" fill="#2BFC2B"/>
<path d="M42.5 14.3391L38 11.3391L36 19.8391L36.5 28.3391H41.5V19.8391L42.5 14.3391Z" fill="#2BFC2B"/>
<path d="M48.6452 34.0166V29.4381C48.6452 17.0395 38.7719 6.68056 26.6357 6.34759C20.4536 6.18237 14.6288 8.45276 10.2096 12.7528C5.78877 17.0529 3.35484 22.8173 3.35484 28.9844V34.0166H0V38.7587L3.16445 40.1426C10.4084 43.3129 18.091 44.9199 26 44.9199C33.909 44.9199 41.5916 43.3129 48.8355 40.1434L52 38.7587V34.0166H48.6452ZM41.4524 15.0408C40.6682 18.1885 40.2581 21.4217 40.2581 24.6642V27.3069H36.9032V23.0664C36.9032 19.4424 37.5339 15.8946 38.7685 12.502C39.7339 13.2678 40.6296 14.1199 41.4524 15.0408ZM26.5896 8.02501C27.5189 8.05018 28.4323 8.14579 29.3288 8.29424L27.7445 27.3069H24.2555L22.6695 8.2783C23.951 8.07534 25.2619 7.98559 26.5896 8.02501ZM11.3788 13.9555C11.9558 13.3936 12.5614 12.8736 13.1879 12.388C14.4501 15.8141 15.0968 19.3996 15.0968 23.0664V27.3069H11.7419V24.6642C11.7419 21.3588 11.3175 18.0669 10.5023 14.8655C10.7858 14.556 11.0752 14.2508 11.3788 13.9555ZM50.3226 37.6617L48.1637 38.6069C41.1328 41.6833 33.6759 43.2424 26 43.2424C18.3241 43.2424 10.8672 41.6833 3.83626 38.6069L1.67742 37.6617V35.694H4.19355H5.03226H41.9355V34.0166H5.03226V28.9844C5.03226 24.4117 6.48155 20.0798 9.15871 16.4901C9.74832 19.174 10.0645 21.914 10.0645 24.6642V28.9844H16.7742V23.0664C16.7742 19.0473 16.0361 15.1205 14.5986 11.379C16.5721 10.0933 18.7359 9.16147 21.0147 8.60876L22.7123 28.9844H29.2877L30.9828 8.63895C33.2775 9.22018 35.4279 10.1931 37.362 11.4839C35.9505 15.1951 35.2258 19.0859 35.2258 23.0664V28.9844H41.9355V24.6642C41.9355 21.987 42.2341 19.3166 42.7943 16.6981C45.4103 20.2769 46.9677 24.6952 46.9677 29.4381V34.0166H43.6129V35.694H46.9677H47.8064H50.3226V37.6617Z" fill="#293329" stroke="#293329" stroke-width="0.5"/>
</g>
<defs>
<clipPath id="clip0">
<rect width="52" height="52" fill="white" transform="translate(0 0.339111)"/>
</clipPath>
</defs>
</svg>
