<svg width="52" height="53" viewBox="0 0 52 53" fill="none" xmlns="http://www.w3.org/2000/svg">
<g clip-path="url(#clip0)">
<path d="M12.5 30.3391C15.7 35.1391 19.8333 33.3391 21.5 31.8391C21.5 25.7735 16.2621 24.0004 11 26.3391C11 26.6725 11.3 27.9391 12.5 30.3391Z" fill="#2BFC2B"/>
<path d="M22 19.3392C21.2 22.9392 24.3333 24.8392 26 25.3392C27.5 25.3392 30 22.3392 29.5 19.3392C29.1 16.9392 27 14.0059 26 12.8392C25 13.5059 22.8 15.7392 22 19.3392Z" fill="#2BFC2B"/>
<path d="M35 26.8392C30.6 26.4392 29.8333 30.3392 30 32.3392C30.8333 33.3392 33.2 35.2392 36 34.8392C38.8 34.4392 40.5 30.0059 41 27.8392C40.8333 27.6726 39.4 27.2392 35 26.8392Z" fill="#2BFC2B"/>
<path d="M39.5 5.33923L40 1.33923L51 2.83923L50.5 7.33923L39.5 5.33923Z" fill="#2BFC2B"/>
<path d="M19.3335 43.7238C17.8914 43.7238 16.7183 44.8969 16.7183 46.339C16.7183 46.7639 17.0626 47.1082 17.4875 47.1082C17.912 47.1082 18.2568 46.7639 18.2568 46.339C18.2568 45.7451 18.7396 45.2623 19.3335 45.2623C19.9274 45.2623 20.4106 45.7451 20.4106 46.339C20.4106 46.7639 20.755 47.1082 21.1799 47.1082C21.6048 47.1082 21.9491 46.7639 21.9491 46.339C21.9487 44.8973 20.7756 43.7238 19.3335 43.7238Z" fill="#293329"/>
<path d="M31.2309 45.6725C29.7888 45.6725 28.6152 46.8456 28.6152 48.2877C28.6152 48.7126 28.9596 49.057 29.3845 49.057C29.8094 49.057 30.1537 48.7126 30.1537 48.2877C30.1537 47.6942 30.637 47.211 31.2309 47.211C31.8248 47.211 32.3076 47.6942 32.3076 48.2877C32.3076 48.7126 32.6519 49.057 33.0768 49.057C33.5017 49.057 33.8461 48.7126 33.8461 48.2877C33.8461 46.8456 32.6726 45.6725 31.2309 45.6725Z" fill="#293329"/>
<path d="M42.5124 48.903C42.5124 49.243 42.2371 49.5188 41.8971 49.5188C41.5575 49.5188 41.2817 49.243 41.2817 48.903C41.2817 48.5634 41.5575 48.2877 41.8971 48.2877C42.2371 48.2877 42.5124 48.5634 42.5124 48.903Z" fill="#293329"/>
<path d="M12.5639 47.2622C12.5639 47.6022 12.2886 47.8775 11.9486 47.8775C11.6086 47.8775 11.3333 47.6022 11.3333 47.2622C11.3333 46.9222 11.6086 46.6469 11.9486 46.6469C12.2886 46.6469 12.5639 46.9222 12.5639 47.2622Z" fill="#293329"/>
<path d="M46.9229 46.4936C46.5298 46.4936 46.1422 46.5384 45.7641 46.6265C44.9417 45.5033 43.8717 44.6222 42.6541 44.0358L46.4778 41.6479C48.319 40.4978 49.5913 38.6118 49.9682 36.4738L51.6067 27.1821C51.642 26.9813 51.5964 26.7746 51.4793 26.6076C51.3623 26.4402 51.1838 26.3263 50.9826 26.291L49.5921 26.0458C49.1744 25.9724 48.7748 26.2513 48.7011 26.6699C48.6273 27.088 48.9066 27.4871 49.3251 27.5609L49.9583 27.6724L48.4531 36.2068C48.152 37.9159 47.1348 39.4235 45.6629 40.3431L41.5175 42.9317C41.1775 43.1444 40.7871 43.2793 40.3884 43.3229C39.9425 43.2499 39.4875 43.2118 39.0257 43.2118C38.8218 43.2118 38.617 43.2194 38.4123 43.2344C37.7692 41.1627 35.9812 39.6544 33.8305 39.3656L32.8256 38.0798C32.1186 37.1752 31.6894 36.114 31.5636 35C32.3265 35.4423 33.2886 35.8101 34.3792 35.8101H34.3796C35.0707 35.8101 35.7535 35.6609 36.4093 35.3665C39.9005 33.7991 41.731 28.3492 41.8075 28.1179C41.9361 27.7272 41.7349 27.3042 41.3505 27.1579C41.235 27.1142 38.4945 26.0835 35.6983 26.0835C34.5918 26.0835 33.6187 26.2493 32.7931 26.5723L33.1228 24.7041L39.2459 25.784H39.2466L43.834 26.5929H43.8344L45.8422 26.9468C46.262 27.021 46.6599 26.7413 46.7337 26.3227C46.8075 25.9046 46.5278 25.5055 46.1096 25.4317L44.8588 25.2111L45.8339 19.6819L47.902 7.95109L50.288 8.37162C50.3336 8.37956 50.3784 8.38352 50.4225 8.38352C50.789 8.38352 51.1136 8.12089 51.1794 7.74797L51.9883 3.16021C52.0621 2.74206 51.7824 2.34295 51.3643 2.26916L40.49 0.35178C40.2885 0.316074 40.0822 0.362094 39.9151 0.479129C39.7477 0.596164 39.6339 0.774691 39.5985 0.975832L38.79 5.56319C38.7158 5.98174 38.9955 6.38085 39.4137 6.45424L41.7996 6.87517L41.3933 9.18095C41.3195 9.5991 41.5988 9.99821 42.0174 10.072C42.4351 10.1454 42.8346 9.86649 42.908 9.44794L43.3147 7.14216L46.3873 7.68409L44.4525 18.6572L41.3798 18.1156L42.2757 13.0363C42.3495 12.6178 42.0698 12.2187 41.6516 12.1453C41.2331 12.0715 40.8344 12.3508 40.7606 12.7693L39.7314 18.606L38.7563 24.1352L32.6324 23.0553C32.2135 22.9819 31.8152 23.2608 31.7414 23.6793L31.0332 27.6954C29.4665 29.2407 29.3999 31.4465 29.4772 32.5192C28.3513 33.0366 27.4444 33.7642 26.7696 34.4366V25.6789C28.3739 25.1028 30.667 23.5572 30.667 20.6987C30.667 16.9663 26.7327 12.6658 26.5653 12.4845C26.4197 12.327 26.2146 12.2373 26.0003 12.2373C25.7857 12.2373 25.581 12.327 25.4354 12.4845C25.2676 12.6658 21.3336 16.9663 21.3336 20.6987C21.3336 23.5572 23.6263 25.1028 25.2311 25.6789V32.8981C24.5558 32.2256 23.6489 31.4981 22.5234 30.9807C22.6178 29.6687 22.4976 26.6615 19.6797 25.2413C18.7632 24.7795 17.6266 24.545 16.3019 24.545C13.5058 24.545 10.7652 25.5757 10.6497 25.6193C10.2653 25.7657 10.0642 26.1887 10.1927 26.5794C10.2689 26.8107 12.0998 32.261 15.591 33.828C16.2468 34.1224 16.9299 34.272 17.621 34.272C19.6134 34.272 21.1777 33.0437 21.8795 32.378C23.7053 33.2183 24.8804 34.7758 25.2311 35.2872V40.403C24.4864 40.5256 23.7798 40.8231 23.1724 41.2698C22.1195 40.0317 20.587 39.3144 18.9235 39.3144C16.4443 39.3144 14.3048 40.9247 13.5879 43.2348C13.3832 43.2194 13.1785 43.2118 12.975 43.2118C10.2879 43.2118 7.80997 44.4782 6.23616 46.6269C5.85808 46.5384 5.47047 46.4939 5.07732 46.4939C2.27761 46.4936 0 48.7712 0 51.5705C0 51.9954 0.344359 52.3397 0.769254 52.3397H51.2306C51.6555 52.3397 51.9998 51.9954 51.9998 51.5705C51.9998 48.7712 49.7222 46.4936 46.9229 46.4936ZM40.9799 2.00058L50.3395 3.65057L49.7976 6.72322L47.4117 6.30229L42.8243 5.49337C42.8239 5.49337 42.8235 5.49337 42.8231 5.49337L40.4384 5.07283L40.9799 2.00058ZM41.1125 19.6307L44.1851 20.1727L43.3437 24.9441L40.271 24.4026L41.1125 19.6307ZM16.2206 32.4244C14.012 31.433 12.5088 28.2524 11.9248 26.8151C12.8686 26.5263 14.596 26.0835 16.3015 26.0835C17.3838 26.0835 18.2871 26.2624 18.987 26.6151C20.6627 27.4598 20.9873 29.1744 21.0067 30.2864L17.306 28.5174C16.9228 28.3345 16.4634 28.4964 16.2801 28.88C16.0968 29.2633 16.2591 29.7227 16.6423 29.9056L20.343 31.6746C19.7138 32.1657 18.7434 32.7331 17.6206 32.7331C17.1481 32.7331 16.6772 32.6295 16.2206 32.4244ZM35.6983 27.622C37.3987 27.622 39.13 28.0656 40.0754 28.354C39.493 29.7917 37.9934 32.9687 35.7793 33.9629C35.3226 34.1676 34.8517 34.2716 34.3796 34.2716H34.3792C33.2652 34.2716 32.2928 33.7027 31.6604 33.2111L35.3571 31.4441C35.7404 31.2608 35.9026 30.8018 35.7193 30.4182C35.5361 30.0349 35.0774 29.8727 34.6938 30.0559L30.9983 31.8222C31.0221 30.709 31.3502 28.9911 33.0129 28.1532C33.7123 27.8009 34.616 27.622 35.6983 27.622ZM29.995 33.9768C29.9148 35.8002 30.4782 37.5747 31.6132 39.0267L31.9302 39.4318C30.7194 39.6817 29.6328 40.3225 28.8274 41.2694C28.2204 40.8231 27.5134 40.5252 26.7692 40.403V36.8253C27.1112 36.3262 28.2414 34.8294 29.995 33.9768ZM22.8717 20.6987C22.8717 18.3307 24.9657 15.4631 26.0003 14.1912C27.0354 15.4619 29.1281 18.3255 29.1281 20.6987C29.1281 22.559 27.7479 23.5441 26.7692 24.0086V21.0066C26.7692 20.5817 26.4248 20.2373 25.9999 20.2373C25.575 20.2373 25.2307 20.5817 25.2307 21.0066V24.0035C24.2535 23.5345 22.8717 22.5447 22.8717 20.6987ZM1.62261 50.8012C1.97491 49.2191 3.39003 48.0321 5.07692 48.0321C5.49428 48.0321 5.90291 48.1039 6.2913 48.2459C6.63169 48.3701 7.01216 48.2403 7.20536 47.9341C8.46497 45.9405 10.6216 44.7499 12.9742 44.7499C13.332 44.7499 13.6954 44.7789 14.0541 44.836C14.469 44.9019 14.861 44.6222 14.9328 44.2076C15.2692 42.2636 16.9474 40.8529 18.9231 40.8529C20.3525 40.8529 21.649 41.5837 22.3909 42.808C22.5163 43.0154 22.7321 43.1511 22.9733 43.1749C23.2141 43.1987 23.4525 43.1075 23.616 42.929C24.2273 42.2613 25.0962 41.8784 25.9999 41.8784C26.9037 41.8784 27.7729 42.2613 28.3839 42.929C28.5473 43.1075 28.7857 43.1987 29.0266 43.1749C29.2678 43.1511 29.4836 43.0154 29.6089 42.808C30.3508 41.5837 31.6473 40.8529 33.0767 40.8529C35.0524 40.8529 36.7306 42.2636 37.067 44.2076C37.1388 44.6222 37.53 44.9019 37.9458 44.836C38.3044 44.7789 38.6678 44.7499 39.0257 44.7499C41.3783 44.7499 43.5345 45.9405 44.7945 47.9341C44.9877 48.2403 45.3685 48.3701 45.7085 48.2459C46.0969 48.1039 46.5052 48.0321 46.9229 48.0321C48.6098 48.0321 50.0249 49.2191 50.3772 50.8012H1.62261Z" fill="#293329"/>
</g>
<defs>
<clipPath id="clip0">
<rect width="52" height="52" fill="white" transform="translate(0 0.339111)"/>
</clipPath>
</defs>
</svg>
