<svg width="68" height="37" viewBox="0 0 68 37" fill="none" xmlns="http://www.w3.org/2000/svg">
<g clip-path="url(#clip0)">
<path d="M1.4488 10.3638H24.91V15.6848L9.84559 31.2768H25.4552V37.0001H4.53333C2.0252 37.0001 0 34.9892 0 32.4988V31.4624L14.9086 16.0406H1.4488V10.3638Z" fill="#2BFC2B"/>
<path d="M28.6956 10.3638H30.9856C33.8365 10.3638 36.1421 12.6531 36.1421 15.4838V20.1706C37.1547 19.1343 38.1673 18.3763 39.1643 17.9277C40.1613 17.4792 41.3453 17.2626 42.7162 17.2626C44.7414 17.2626 46.3304 17.8813 47.4988 19.1033C48.6672 20.3253 49.2436 22.2124 49.2436 24.7337V37.0001H41.7503V26.3889C41.7503 25.1823 41.5166 24.3161 41.0804 23.8211C40.6287 23.3261 39.9899 23.0632 39.1799 23.0632C38.2763 23.0632 37.5441 23.4035 36.9833 24.0841C36.4225 24.7647 36.1421 25.9867 36.1421 27.7346V37.0001H28.6956V10.3638Z" fill="#2BFC2B"/>
<path d="M45.9563 12.8387C48.4177 5.12006 56.7834 3.91354 56.7834 3.91354C56.7834 3.91354 47.2338 9.48211 48.1529 15.1899C48.1685 15.2363 48.1529 15.2982 48.1373 15.36C51.0038 17.3864 54.1974 16.6748 57.5779 14.3855C62.5786 11.0289 67.9999 8.10291e-05 67.9999 8.10291e-05C67.9999 8.10291e-05 58.0764 -0.123665 51.4555 2.04189C46.4081 3.69699 44.9593 9.63679 45.9563 12.8387Z" fill="#2BFC2B"/>
</g>
<defs>
<clipPath id="clip0">
<rect width="68" height="37" fill="white"/>
</clipPath>
</defs>
</svg>
