<svg width="20" height="20" viewBox="0 0 20 20" fill="none" xmlns="http://www.w3.org/2000/svg">
<path d="M10.0001 10.339H9.0001C9.0001 10.6042 9.10545 10.8585 9.29299 11.0461L10.0001 10.339ZM10.0001 17.739C5.91319 17.739 2.6001 14.4259 2.6001 10.339H0.600098C0.600098 15.5304 4.80862 19.739 10.0001 19.739V17.739ZM17.4001 10.339C17.4001 14.4259 14.087 17.739 10.0001 17.739V19.739C15.1916 19.739 19.4001 15.5304 19.4001 10.339H17.4001ZM10.0001 2.93896C14.087 2.93896 17.4001 6.25206 17.4001 10.339H19.4001C19.4001 5.14749 15.1916 0.938965 10.0001 0.938965V2.93896ZM10.0001 0.938965C4.80862 0.938965 0.600098 5.14749 0.600098 10.339H2.6001C2.6001 6.25206 5.91319 2.93896 10.0001 2.93896V0.938965ZM9.0001 4.93896V10.339H11.0001V4.93896H9.0001ZM9.29299 11.0461L12.893 14.6461L14.3072 13.2319L10.7072 9.63186L9.29299 11.0461Z" fill="#2BFC2B"/>
</svg>
