<svg width="55" height="56" viewBox="0 0 55 56" fill="none" xmlns="http://www.w3.org/2000/svg">
<g clip-path="url(#clip0)">
<path d="M36 2.33911L41 5.33911L46 12.3391H36V2.33911Z" fill="#2BFC2B"/>
<path d="M46.5661 10.0247C46.5619 10.0205 46.5582 10.0163 46.5544 10.0117C46.5489 10.0058 46.5435 9.99953 46.5376 9.99365L46.1822 9.60593L39.1423 1.92065C38.3593 1.06589 37.3203 0.528358 36.1831 0.380653C36.1819 0.380653 36.1806 0.380653 36.1794 0.380234C36.1642 0.378555 36.1491 0.376457 36.1336 0.374779C35.9406 0.35128 35.7455 0.339111 35.5491 0.339111H16.0533C13.8646 0.339111 12.0837 2.11954 12.0837 4.30827V6.23892H10.7271C8.7809 6.23892 7.19727 7.82256 7.19727 9.76958V49.9433C7.19727 52.9188 9.61761 55.3391 12.5931 55.3391H37.254C39.2002 55.3391 40.7838 53.7555 40.7838 51.8093V50.1271H43.8483C46.037 50.1271 47.8178 48.3462 47.8178 46.1579V13.2855C47.8178 12.077 47.3735 10.9206 46.5661 10.0247ZM44.8893 11.3746H37.5683C37.1436 11.3746 36.7983 11.0293 36.7983 10.6046V2.79177C37.0811 2.9378 37.3392 3.13334 37.5578 3.3721L44.3787 10.8174L44.8893 11.3746ZM43.8487 47.9786H16.0533C15.0491 47.9786 14.2321 47.1616 14.2321 46.1579V41.1594C14.2321 40.5661 13.7513 40.0852 13.1579 40.0852C12.565 40.0852 12.0837 40.5661 12.0837 41.1594V46.1579C12.0837 48.3466 13.8646 50.1271 16.0533 50.1271H38.6354V51.8093C38.6354 52.5709 38.0156 53.1907 37.254 53.1907H12.5931C10.8026 53.1907 9.3457 51.7338 9.3457 49.9433V9.76958C9.3457 9.00713 9.96548 8.38736 10.7271 8.38736H12.0837V32.5657C12.0837 33.159 12.565 33.6399 13.1579 33.6399C13.7513 33.6399 14.2321 33.159 14.2321 32.5657V4.30827C14.2321 3.30454 15.0491 2.48755 16.0533 2.48755H34.6498V10.6046C34.6498 12.2138 35.9591 13.523 37.5683 13.523H45.6694V46.1579C45.6694 47.1616 44.8524 47.9786 43.8487 47.9786Z" fill="#293329"/>
<path d="M13.1584 35.7896C12.5651 35.7896 12.0842 36.2722 12.0842 36.8651C12.0842 37.4584 12.5651 37.9393 13.1584 37.9393C13.7514 37.9393 14.2327 37.4584 14.2327 36.8651V36.8626C14.2327 36.2692 13.7514 35.7896 13.1584 35.7896Z" fill="#293329"/>
<rect x="19" y="39.3391" width="19" height="3" rx="1.5" fill="#2BFC2B"/>
<rect x="19" y="30.3391" width="19" height="3" rx="1.5" fill="#2BFC2B"/>
<rect x="19" y="21.3391" width="19" height="3" rx="1.5" fill="#2BFC2B"/>
<rect x="19" y="13.3391" width="14" height="3" rx="1.5" fill="#2BFC2B"/>
</g>
<defs>
<clipPath id="clip0">
<rect width="55" height="55" fill="white" transform="translate(0 0.339111)"/>
</clipPath>
</defs>
</svg>
