<svg width="55" height="56" viewBox="0 0 55 56" fill="none" xmlns="http://www.w3.org/2000/svg">
<g clip-path="url(#clip0)">
<rect x="13" y="33.3391" width="6" height="6" fill="#2BFC2B"/>
<rect x="13" y="21.3391" width="6" height="6" fill="#2BFC2B"/>
<rect x="13" y="9.33911" width="6" height="6" fill="#2BFC2B"/>
<path fill-rule="evenodd" clip-rule="evenodd" d="M44.0001 51.8391C47.5001 50.8391 48.5001 48.4595 48.5001 45.3391C49.4784 41.426 47.5001 38.8391 44.0001 37.839C42.0001 35.8391 41.3914 35.9912 40.0001 36.3391C38.9548 36.2229 38.23 36.7265 37.5235 37.2174C37.189 37.4498 36.8585 37.6794 36.5001 37.839C32.0001 39.339 31.7802 41.3795 32.5001 45.3391C31.5018 48.3339 32.5001 50.339 36.5001 51.339C36.9946 51.6628 37.3812 52.184 37.7653 52.7018C38.3757 53.5247 38.9797 54.3391 40.0001 54.3391C41.2484 54.3391 41.9822 53.6367 42.7667 52.8858C43.1449 52.5238 43.5349 52.1504 44.0001 51.8391ZM40.5001 47.3391C41.8808 47.3391 43.0001 46.2198 43.0001 44.8391C43.0001 43.4584 41.8808 42.3391 40.5001 42.3391C39.1194 42.3391 38.0001 43.4584 38.0001 44.8391C38.0001 46.2198 39.1194 47.3391 40.5001 47.3391Z" fill="#2BFC2B"/>
<path d="M48.9099 45.7049C48.9784 45.0766 48.9784 44.4408 48.9099 43.8125L49.5188 43.1937C50.3013 42.397 50.4578 41.1658 49.8999 40.1999L49.0561 38.7372C48.498 37.7712 47.3536 37.2916 46.2708 37.5709L45.4316 37.7887C44.9215 37.4137 44.3706 37.095 43.7926 36.8407L43.5619 36.0056C43.2839 35.0044 42.4088 34.2849 41.3891 34.1899V3.65651C41.3891 1.82733 39.9009 0.339111 38.0717 0.339111H8.08522C6.25604 0.339111 4.76782 1.82733 4.76782 3.65651V19.3687C4.76782 19.9619 5.24886 20.4429 5.84204 20.4429C6.43522 20.4429 6.91626 19.9619 6.91626 19.3687V3.65651C6.91626 3.01198 7.44069 2.48755 8.08522 2.48755H38.0716C38.7161 2.48755 39.2406 3.01198 39.2406 3.65651V34.1888C38.5145 34.2566 37.8415 34.6552 37.4246 35.2521C37.097 35.7213 36.988 36.2974 36.8376 36.8401C36.2607 37.0949 35.7066 37.415 35.1986 37.7884L34.3567 37.5699C33.287 37.2943 32.1266 37.7815 31.5747 38.7372L30.7294 40.2003C30.178 41.1559 30.3383 42.4073 31.1121 43.194L31.72 43.8121C31.6515 44.4401 31.6515 45.0768 31.72 45.7049L31.4598 45.9697H8.08522C7.44069 45.9697 6.91626 45.4452 6.91626 44.8007V28.8169C6.91626 28.2237 6.43522 27.7426 5.84204 27.7426C5.24886 27.7426 4.76782 28.2237 4.76782 28.8169V44.8009C4.76782 46.6301 6.25604 48.1183 8.08522 48.1183H30.3993C30.4064 48.5308 30.5143 48.9442 30.7302 49.3181L31.5747 50.7802C32.1328 51.7463 33.2774 52.226 34.3589 51.9466L35.1983 51.7288C35.7088 52.104 36.2597 52.4228 36.8378 52.6771L37.0685 53.5103C37.3655 54.5871 38.3537 55.3391 39.4713 55.3391H41.1595C42.2754 55.3391 43.2632 54.5877 43.5622 53.5107L43.7927 52.6767C44.3703 52.4226 44.9213 52.104 45.4316 51.7288L46.2722 51.9469C47.3531 52.2257 48.4979 51.7463 49.0565 50.7797L49.8997 49.3181C50.4579 48.3517 50.3014 47.1205 49.5183 46.3232L48.9099 45.7049ZM46.7705 44.0135C46.827 44.5081 46.827 45.0093 46.7705 45.5039C46.6996 46.1244 46.9112 46.7368 47.3511 47.184L47.3512 47.1841L47.9861 47.8294C48.0945 47.9396 48.1163 48.1099 48.0389 48.2439L47.1957 49.7054C47.1184 49.839 46.9596 49.9056 46.8105 49.8669L45.9334 49.6393C45.3248 49.4814 44.6875 49.6051 44.185 49.9783C43.785 50.2756 43.3516 50.5262 42.8968 50.7234C42.324 50.9718 41.8996 51.4614 41.732 52.067L41.4916 52.9373C41.4501 53.0866 41.3136 53.1907 41.1593 53.1907H39.4712C39.3167 53.1907 39.1804 53.0871 39.1393 52.9378L38.8979 52.0661C38.7302 51.4609 38.3056 50.9717 37.7333 50.7237C37.2784 50.5265 36.8449 50.2757 36.4446 49.9783C35.9462 49.608 35.2969 49.4835 34.6963 49.6394L33.8205 49.8667C33.6705 49.9057 33.5123 49.8392 33.4351 49.7056L32.5905 48.2435C32.5135 48.1103 32.5354 47.9403 32.6443 47.8297L33.2792 47.1839C33.7119 46.7438 33.9307 46.1192 33.8594 45.5053C33.8019 44.9966 33.8118 44.4899 33.8621 43.9814C33.9224 43.3761 33.7053 42.7672 33.2792 42.3337L32.6438 41.6873C32.5354 41.5773 32.5135 41.4074 32.5905 41.274L33.4349 39.8124C33.5104 39.6819 33.6729 39.6123 33.8192 39.6505L34.6962 39.878C35.2952 40.0336 35.9479 39.9089 36.4445 39.5393C36.7677 39.2993 37.115 39.0906 37.4764 38.9141C38.1435 38.589 38.6881 38.2088 38.8979 37.4514L39.1394 36.5794C39.1801 36.4321 39.3199 36.3268 39.4712 36.3268H41.1593C41.3136 36.3268 41.4501 36.431 41.4913 36.5791L41.7321 37.4508C41.8996 38.0563 42.3242 38.5458 42.8967 38.7939C43.3516 38.9912 43.7852 39.2419 44.185 39.5392C44.6875 39.9125 45.3246 40.036 45.9335 39.8782L46.8091 39.6509C46.9598 39.6119 47.1184 39.6784 47.1953 39.8115L48.0391 41.2742C48.1162 41.4076 48.0944 41.5779 47.9867 41.6876L47.351 42.3337C46.9114 42.7807 46.6996 43.393 46.7705 44.0135Z" fill="#293329"/>
<path d="M40.3149 40.5671C38.0036 40.5671 36.1233 42.4475 36.1233 44.7586C36.1233 47.0699 38.0036 48.9502 40.3149 48.9502C42.6262 48.9502 44.5065 47.0699 44.5065 44.7586C44.5064 42.4475 42.6261 40.5671 40.3149 40.5671ZM40.3149 46.8017C39.1884 46.8017 38.2717 45.8852 38.2717 44.7585C38.2717 43.6319 39.1883 42.7155 40.3149 42.7155C41.4415 42.7155 42.3581 43.6319 42.3581 44.7585C42.3581 45.8852 41.4414 46.8017 40.3149 46.8017Z" fill="#293329"/>
<path d="M12.6946 16.1753H18.7143C19.3075 16.1753 19.7885 15.6943 19.7885 15.1011V9.08138C19.7885 8.48819 19.3075 8.00716 18.7143 8.00716H12.6946C12.1014 8.00716 11.6204 8.48819 11.6204 9.08138V15.1011C11.6204 15.6943 12.1014 16.1753 12.6946 16.1753ZM13.7688 10.1556H17.6401V14.0269H13.7688V10.1556Z" fill="#293329"/>
<path d="M11.6204 27.2384C11.6204 27.8316 12.1014 28.3126 12.6946 28.3126H18.7143C19.3075 28.3126 19.7885 27.8316 19.7885 27.2384V21.2187C19.7885 20.6255 19.3075 20.1445 18.7143 20.1445H12.6946C12.1014 20.1445 11.6204 20.6255 11.6204 21.2187V27.2384ZM13.7688 22.2929H17.6401V26.1642H13.7688V22.2929Z" fill="#293329"/>
<path d="M11.6204 39.376C11.6204 39.9692 12.1014 40.4502 12.6946 40.4502H18.7143C19.3075 40.4502 19.7885 39.9692 19.7885 39.376V33.3563C19.7885 32.7631 19.3075 32.2821 18.7143 32.2821H12.6946C12.1014 32.2821 11.6204 32.7631 11.6204 33.3563V39.376ZM13.7688 34.4305H17.6401V38.3018H13.7688V34.4305Z" fill="#293329"/>
<path d="M24.7698 10.1556H33.369C33.9622 10.1556 34.4432 9.67456 34.4432 9.08138C34.4432 8.48819 33.9622 8.00716 33.369 8.00716H24.7698C24.1766 8.00716 23.6956 8.48819 23.6956 9.08138C23.6956 9.67456 24.1765 10.1556 24.7698 10.1556Z" fill="#293329"/>
<path d="M24.7698 14.7323H30.0704C30.6636 14.7323 31.1446 14.2513 31.1446 13.6581C31.1446 13.0649 30.6636 12.5839 30.0704 12.5839H24.7698C24.1766 12.5839 23.6956 13.0649 23.6956 13.6581C23.6956 14.2513 24.1765 14.7323 24.7698 14.7323Z" fill="#293329"/>
<path d="M24.7698 22.3354H33.369C33.9622 22.3354 34.4432 21.8543 34.4432 21.2611C34.4432 20.668 33.9622 20.1869 33.369 20.1869H24.7698C24.1766 20.1869 23.6956 20.668 23.6956 21.2611C23.6956 21.8543 24.1765 22.3354 24.7698 22.3354Z" fill="#293329"/>
<path d="M24.7698 26.9121H30.0704C30.6636 26.9121 31.1446 26.431 31.1446 25.8379C31.1446 25.2447 30.6636 24.7636 30.0704 24.7636H24.7698C24.1766 24.7636 23.6956 25.2447 23.6956 25.8379C23.6956 26.431 24.1765 26.9121 24.7698 26.9121Z" fill="#293329"/>
<path d="M24.7698 34.4305H33.369C33.9622 34.4305 34.4432 33.9495 34.4432 33.3563C34.4432 32.7631 33.9622 32.2821 33.369 32.2821H24.7698C24.1766 32.2821 23.6956 32.7631 23.6956 33.3563C23.6956 33.9495 24.1765 34.4305 24.7698 34.4305Z" fill="#293329"/>
<path d="M24.7698 39.0071H28.1721C28.7652 39.0071 29.2463 38.5261 29.2463 37.9329C29.2463 37.3397 28.7652 36.8587 28.1721 36.8587H24.7698C24.1766 36.8587 23.6956 37.3397 23.6956 37.9329C23.6956 38.5261 24.1765 39.0071 24.7698 39.0071Z" fill="#293329"/>
<path d="M4.94851 24.7173C5.20407 25.0977 5.68661 25.278 6.12843 25.1556C6.56961 25.0335 6.89231 24.6314 6.91422 24.1738C6.95902 23.237 5.81583 22.6961 5.12082 23.3255C4.73141 23.6781 4.65761 24.2802 4.94851 24.7173Z" fill="#293329"/>
</g>
<defs>
<clipPath id="clip0">
<rect width="55" height="55" fill="white" transform="translate(0 0.339111)"/>
</clipPath>
</defs>
</svg>
