<svg width="55" height="56" viewBox="0 0 55 56" fill="none" xmlns="http://www.w3.org/2000/svg">
<g clip-path="url(#clip0)">
<path d="M50 30.3391H53V34.3391H50V30.3391Z" fill="#2BFC2B"/>
<circle cx="11.5" cy="38.8391" r="3.5" fill="#2BFC2B"/>
<circle cx="43.5" cy="38.8391" r="3.5" fill="#2BFC2B"/>
<rect x="8" y="17.3391" width="15" height="8" fill="#2BFC2B"/>
<path d="M53.9168 27.7959C53.7483 26.5045 52.924 25.4284 51.7108 24.9157L46.4147 22.598C46.41 22.5959 46.4052 22.5939 46.4003 22.5918C45.5456 22.2326 44.7936 21.7041 44.1656 21.0215L37.3216 13.5747C36.3101 12.4749 34.8727 11.8441 33.378 11.8441H6.05C4.16034 11.8441 2.5777 13.1991 2.2869 15.0658C2.28336 15.0884 2.28057 15.1111 2.27853 15.1338L0.482002 34.8843C0.177783 35.3419 0 35.8906 0 36.4802V38.2473C0 39.8407 1.29583 41.1369 2.88857 41.1369H7.25807C8.12399 42.7413 9.82083 43.834 11.7682 43.834C13.7155 43.834 15.4124 42.7413 16.2783 41.1369H23.0677C23.661 41.1369 24.1419 40.656 24.1419 40.0627C24.1419 39.4694 23.661 38.9885 23.0677 38.9885H16.8825C16.8826 38.9859 16.8826 38.9833 16.8827 38.9807C16.8865 38.9073 16.888 38.8333 16.8887 38.759C16.9135 35.9523 14.5749 33.5904 11.768 33.5904H2.88857C2.84453 33.5904 2.8006 33.5914 2.75677 33.5934L4.41461 15.3666C4.5534 14.5686 5.23639 13.9925 6.05 13.9925H33.3781C34.2735 13.9925 35.1346 14.3703 35.7401 15.0287L42.5843 22.4756C43.4211 23.3851 44.4223 24.0895 45.5603 24.569L50.8558 26.8863C50.8606 26.8885 50.8655 26.8906 50.8705 26.8927C51.1715 27.0191 51.6908 27.3406 51.7857 28.0682L51.9186 29.1287H50.4622C49.0957 29.1287 47.984 30.2405 47.984 31.607V33.2605C47.984 33.3725 47.9921 33.4824 48.0065 33.5904H43.3308C43.3307 33.5904 43.3307 33.5904 43.3305 33.5904C43.3304 33.5904 43.3304 33.5904 43.3303 33.5904C40.5062 33.5904 38.2086 35.888 38.2086 38.7121C38.2086 38.8039 38.2113 38.8952 38.2161 38.9859C38.2161 38.9868 38.2161 38.9875 38.2162 38.9884H32.5208C31.9276 38.9884 31.4466 39.4693 31.4466 40.0626C31.4466 40.6559 31.9276 41.1368 32.5208 41.1368H38.8202C39.6862 42.7411 41.383 43.8338 43.3303 43.8338C45.2777 43.8338 46.9745 42.7411 47.8404 41.1368H52.1114C53.7042 41.1368 55 39.8405 55 38.2472V36.4801C55 36.25 53.9168 27.7959 53.9168 27.7959ZM11.7682 41.6855C10.1516 41.6855 8.79484 40.3258 8.79484 38.7122C8.79484 37.0728 10.1286 35.739 11.7681 35.739C13.3854 35.739 14.7414 37.094 14.7414 38.7122C14.7414 40.3259 13.3851 41.6855 11.7682 41.6855ZM7.59988 35.7391C6.92785 36.6782 6.59248 37.8358 6.6536 38.9886H2.88857C2.48048 38.9886 2.14844 38.6561 2.14844 38.2474V36.4803C2.14844 36.0739 2.4895 35.7391 2.88857 35.7391H7.59988ZM50.1323 33.2607V31.6072C50.1323 31.4253 50.2802 31.2773 50.4621 31.2773H52.1877L52.4775 33.5906H50.4621C50.2801 33.5906 50.1323 33.4426 50.1323 33.2607ZM43.3303 41.6855C41.7137 41.6855 40.3572 40.3259 40.3572 38.7124C40.3572 37.0729 41.6911 35.7391 43.3305 35.739C44.9454 35.7391 46.3031 37.0939 46.3031 38.7124C46.3031 40.3265 44.9474 41.6855 43.3303 41.6855ZM52.8516 38.2474C52.8516 38.6561 52.5195 38.9886 52.1114 38.9886H48.4444C48.5059 37.8363 48.1695 36.6778 47.4981 35.7391H52.1114C52.5134 35.7391 52.8516 36.0765 52.8516 36.4803V38.2474Z" fill="#293329"/>
<path d="M29.7857 26.8894H38.8217C39.6535 26.8894 40.3771 26.4159 40.7102 25.6539C41.0433 24.8918 40.8993 24.0391 40.3342 23.4287L34.619 17.2534C34.0577 16.6471 33.262 16.2993 32.4359 16.2993H29.7857C28.5255 16.2993 27.5 17.3247 27.5 18.5851V24.6037C27.5 25.864 28.5255 26.8894 29.7857 26.8894ZM29.6484 18.585C29.6484 18.5092 29.71 18.4477 29.7857 18.4477H32.4359C32.6654 18.4477 32.8863 18.5442 33.0423 18.7127L38.6216 24.741H29.7858C29.7101 24.741 29.6485 24.6793 29.6485 24.6036V18.585H29.6484Z" fill="#293329"/>
<path d="M22.5474 16.2992H8.84588C7.60859 16.2992 6.60205 17.3058 6.60205 18.5429V24.6457C6.60205 25.8829 7.60859 26.8894 8.84588 26.8894H22.5474C23.7846 26.8894 24.7912 25.8829 24.7912 24.6457V18.5429C24.7912 17.3058 23.7846 16.2992 22.5474 16.2992ZM8.75049 24.6456V18.5428C8.75049 18.4903 8.79324 18.4476 8.84588 18.4476H14.4613V24.7409H8.84588C8.79335 24.741 8.75049 24.6982 8.75049 24.6456ZM22.6427 24.6456C22.6427 24.6981 22.6 24.7409 22.5474 24.7409H16.6098V18.4476H22.5474C22.6 18.4476 22.6427 18.4903 22.6427 18.5428V24.6456Z" fill="#293329"/>
<path d="M32.1562 30.1091C32.1562 29.5158 31.6752 29.0348 31.082 29.0348H28.6238C28.0306 29.0348 27.5496 29.5158 27.5496 30.1091C27.5496 30.7023 28.0306 31.1833 28.6238 31.1833H31.082C31.6752 31.1833 32.1562 30.7023 32.1562 30.1091Z" fill="#293329"/>
<path d="M28.9071 39.6522C28.6852 39.1108 28.0438 38.8473 27.5042 39.071C26.9637 39.2952 26.6991 39.933 26.923 40.474C27.147 41.0147 27.7857 41.2782 28.326 41.0551C28.866 40.8321 29.132 40.1919 28.9071 39.6522Z" fill="#293329"/>
</g>
<defs>
<clipPath id="clip0">
<rect width="55" height="55" fill="white" transform="translate(0 0.339111)"/>
</clipPath>
</defs>
</svg>
