<svg width="55" height="56" viewBox="0 0 55 56" fill="none" xmlns="http://www.w3.org/2000/svg">
<path d="M46 21.8391C46 27.0858 41.7467 31.3391 36.5 31.3391C35.144 31.3391 33.8544 31.055 32.6874 30.5431C29.9294 29.3333 27.8563 26.851 27.2109 23.8391C27.0727 23.1943 27 22.5252 27 21.8391C27 16.5924 31.2533 12.3391 36.5 12.3391C41.7467 12.3391 46 16.5924 46 21.8391Z" fill="#2BFC2B"/>
<path d="M27.2109 23.8391L25 29.8391L32.6874 30.5431C29.9294 29.3333 27.8563 26.851 27.2109 23.8391Z" fill="#2BFC2B"/>
<path d="M32.9394 43.8457L26.1732 37.3591C24.5732 35.8251 22.1348 35.6598 20.3759 36.9672C20.3752 36.9675 20.367 36.9732 20.3667 36.9738L20.3368 36.9962C20.3008 37.0233 20.2671 37.0236 20.2444 37.0198C20.2046 37.0123 20.1882 36.987 20.1826 36.9773C18.6195 34.4956 17.5625 31.768 17.04 28.8699C16.5181 25.9711 16.5572 23.0445 17.1576 20.1719C17.1595 20.1621 17.1652 20.1363 17.1961 20.1177C17.2213 20.1028 17.2491 20.0997 17.2797 20.1088L17.3263 20.1224C19.4362 20.7398 21.6715 19.7314 22.6399 17.7256L27.0684 8.55586C27.6924 7.26365 27.425 5.72075 26.404 4.71328C26.042 4.34687 25.6298 4.00222 25.1786 3.68815C21.1371 0.88111 15.621 1.72808 12.6207 5.61669C12.4343 5.86013 12.2612 6.11491 12.0944 6.37222L12.0925 6.37506C11.4921 7.26396 11.1942 7.81894 10.7442 8.6574L10.6483 8.83556C10.5402 9.03516 7.98854 13.7591 7.35978 17.0848C6.3851 22.2436 6.4715 27.5783 7.61078 32.5116C8.81439 37.7227 11.1027 42.3593 14.4114 46.292C15.2512 47.29 16.8067 45.9836 15.966 44.984C12.8657 41.2998 10.7205 36.9492 9.59041 32.0544C8.51419 27.3926 8.43284 22.347 9.35612 17.462C9.92528 14.4496 12.4082 9.85091 12.4353 9.8014L12.5337 9.6182C12.9263 8.88727 13.339 8.18346 13.7918 7.48848L13.7988 7.47744C13.935 7.26207 14.0804 7.05333 14.2345 6.85057C16.574 3.82564 20.87 3.16944 24.0192 5.35655C24.3698 5.59998 24.687 5.86549 24.9626 6.14487C24.9664 6.14897 24.9705 6.15307 24.9746 6.15717C25.3788 6.55353 25.4851 7.16274 25.2388 7.67231L20.8107 16.842C20.2753 17.9501 19.0496 18.5098 17.898 18.1733L17.8595 18.1617C17.2875 17.9911 16.6667 18.0677 16.1562 18.3723C15.6494 18.6744 15.2896 19.1786 15.1692 19.7563C14.5149 22.8856 14.472 26.0729 15.0408 29.2303C15.6094 32.3861 16.7606 35.3565 18.4634 38.0598C18.7787 38.5611 19.2937 38.9099 19.8761 39.0174C20.4638 39.1256 21.0762 38.9812 21.5596 38.6182L21.5873 38.5977C22.5478 37.8841 23.8851 37.9797 24.7671 38.8254L31.5334 45.312C32.3589 46.1038 32.3747 47.4392 31.8336 48.3886C30.8841 50.0425 28.9165 51.1512 27.0841 51.4621C25.2183 51.7781 23.3339 51.3581 21.7788 50.2778C20.7076 49.5339 19.5472 51.201 20.6199 51.9462C22.1814 53.0306 24.0012 53.5969 25.866 53.5969C26.3832 53.5969 26.9044 53.5531 27.4234 53.4651C29.8562 53.0523 32.3438 51.5797 33.5953 49.4002L33.6187 49.3595C34.6119 47.629 34.4104 45.2562 32.9394 43.8457Z" fill="#293329"/>
<path d="M36.6168 11.2692C30.5903 11.2692 25.6879 16.172 25.6879 22.1988C25.6879 22.7254 25.726 23.2558 25.802 23.7795L23.9901 29.6654C23.7994 30.2844 24.2702 30.945 24.9074 30.9785L30.524 31.2727C32.3283 32.4876 34.4284 33.128 36.6168 33.128C42.6433 33.128 47.5464 28.225 47.5464 22.1988C47.5464 16.172 42.6433 11.2692 36.6168 11.2692ZM36.6168 31.0964C34.7526 31.0964 32.9675 30.526 31.4549 29.4466C31.2975 29.3343 31.1112 29.2691 30.9185 29.2593L26.3147 29.0178L27.8125 24.1532C27.9885 23.5818 27.7195 22.7929 27.7195 22.1988C27.7195 17.2923 31.7106 13.3012 36.6168 13.3012C41.523 13.3012 45.5144 17.2923 45.5144 22.1988C45.5144 27.1047 41.523 31.0964 36.6168 31.0964Z" fill="#293329"/>
<path d="M32.9283 21.4695C32.3759 21.4695 31.9124 21.933 31.9124 22.4851C31.9124 23.0376 32.3762 23.5014 32.9283 23.5014C33.4644 23.5014 33.9185 23.0641 33.9421 22.5296C33.967 21.9607 33.4988 21.4695 32.9283 21.4695Z" fill="#293329"/>
<path d="M17.8878 47.6593C17.3354 47.6593 16.8718 48.1231 16.8718 48.675C16.8718 49.2271 17.3357 49.6909 17.8878 49.6909C18.4239 49.6909 18.8779 49.2542 18.9016 48.7194C18.9265 48.1515 18.4573 47.6593 17.8878 47.6593Z" fill="#293329"/>
<path d="M36.9241 21.4695C36.3707 21.4695 35.9084 21.9317 35.9084 22.4851C35.9084 23.0382 36.3717 23.5014 36.9241 23.5014C37.4608 23.5008 37.9136 23.0647 37.937 22.5296C37.9619 21.9607 37.4955 21.4695 36.9241 21.4695Z" fill="#293329"/>
<path d="M40.919 21.4695C40.3669 21.4695 39.9033 21.933 39.9033 22.4851C39.9036 23.0376 40.3675 23.5014 40.919 23.5014C41.4557 23.5014 41.9091 23.0641 41.9328 22.5296C41.9583 21.9607 41.4901 21.4695 40.919 21.4695Z" fill="#293329"/>
</svg>
