<svg width="55" height="56" viewBox="0 0 55 56" fill="none" xmlns="http://www.w3.org/2000/svg">
<g clip-path="url(#clip0)">
<rect x="9" y="21.3391" width="11" height="27" fill="#2BFC2B"/>
<path d="M54.3102 32.1538C54.3102 30.9364 53.7784 29.7934 52.9427 28.9529C54.1817 28.1312 55.0001 26.7242 55.0001 25.1296C55.0001 22.7722 52.7712 20.5433 50.4138 20.5433H36.3921C36.0987 20.5433 35.9037 20.2205 36.0483 19.9615L37.8517 16.7477C39.0171 14.644 39.3528 12.324 38.7973 10.215C38.2334 8.07476 36.7749 6.24742 34.695 5.07234L34.6231 5.03119C34.1208 4.74406 33.4816 4.90637 33.1771 5.39804L25.4107 17.9301C24.5232 19.2339 23.054 20.0117 21.4759 20.0117C21.4758 20.0117 21.4754 20.0117 21.4753 20.0117L9.19749 20.0114L1.26022 18.6175C0.676387 18.5146 0.119085 18.9054 0.0163898 19.4898C-0.0863051 20.0741 0.304279 20.631 0.888652 20.7336L8.02981 21.9877V47.3871H1.07449C0.481202 47.3871 0.000276585 47.8681 0.000276585 48.4614C0.000276585 49.0547 0.481202 49.5356 1.07449 49.5356H20.0486C20.6418 49.5356 21.1228 49.0547 21.1228 48.4614V47.0842H22.2815C23.3454 47.0842 24.3984 47.4524 25.2464 48.1208C26.7902 49.3378 29.3847 50.7885 32.9765 50.7885H45.6982C48.2272 50.7885 50.3198 48.7676 50.3631 46.2836C50.3799 45.3254 50.1063 44.411 49.5813 43.6371C51.5932 43.152 53.0924 41.3367 53.0924 39.178C53.0924 38.0248 52.6637 36.9691 51.9575 36.1618C53.3985 35.3558 54.3102 33.8041 54.3102 32.1538ZM49.7238 29.7144C50.9997 29.7144 52.1617 30.8771 52.1617 32.1537C52.1617 33.4824 51.0528 34.5916 49.7238 34.5916H48.5148C47.922 34.5916 47.4412 35.0718 47.4406 35.6647C47.44 36.2574 47.9196 36.7388 48.5124 36.7401C49.8531 36.7431 50.9439 37.8367 50.9439 39.178C50.9439 40.5223 49.8503 41.6159 48.5061 41.6159H45.7777C45.1845 41.6159 44.7035 42.0969 44.7035 42.6901C44.7035 43.2834 45.1845 43.7644 45.7777 43.7644C46.4288 43.7644 47.0409 44.018 47.5014 44.4785C47.9734 44.9505 48.2269 45.5782 48.2153 46.2461C48.1923 47.5661 47.0632 48.6401 45.6984 48.6401H32.9765C30.0003 48.6401 27.8534 47.4402 26.5763 46.4335C25.3511 45.4676 23.8258 44.9357 22.2815 44.9357H21.1228V38.807C21.1228 38.2137 20.6418 37.7328 20.0486 37.7328C19.4553 37.7328 18.9743 38.2137 18.9743 38.807V47.387H10.1782V22.1599H18.9743V29.1703C18.9743 29.7636 19.4553 30.2445 20.0486 30.2445C20.6418 30.2445 21.1228 29.7636 21.1228 29.1703V22.16H21.4752H21.476C23.7759 22.16 25.9168 21.0217 27.203 19.115C27.2108 19.1035 27.2183 19.0919 27.2256 19.0801L34.4292 7.45613C35.588 8.31775 36.3731 9.44632 36.7197 10.7621C37.1336 12.3334 36.8683 14.0893 35.9753 15.7013L34.1737 18.912C33.8891 19.4217 33.792 19.9922 33.8796 20.5432H32.0749C31.4817 20.5432 31.0007 21.0241 31.0007 21.6174C31.0007 22.2107 31.4817 22.6916 32.0749 22.6916H50.4138C51.5986 22.6916 52.8516 23.9448 52.8516 25.1295C52.8516 26.4502 51.7352 27.566 50.4138 27.566H49.7239C49.1308 27.566 48.6497 28.0469 48.6497 28.6402C48.6497 29.2335 49.1307 29.7144 49.7238 29.7144Z" fill="#293329"/>
<path d="M21.0409 33.5497C20.8674 33.1265 20.4253 32.8557 19.9698 32.8897C19.521 32.9231 19.135 33.2409 19.0144 33.6739C18.7554 34.6036 19.8155 35.3798 20.6252 34.8658C21.0592 34.5901 21.2388 34.0245 21.0409 33.5497Z" fill="#293329"/>
</g>
<defs>
<clipPath id="clip0">
<rect width="55" height="55" fill="white" transform="translate(0 0.339111)"/>
</clipPath>
</defs>
</svg>
