<svg width="55" height="56" viewBox="0 0 55 56" fill="none" xmlns="http://www.w3.org/2000/svg">
<g clip-path="url(#clip0)">
<rect x="7.49292" y="9.33911" width="8.40261" height="17.658" transform="rotate(21.5744 7.49292 9.33911)" fill="#2BFC2B"/>
<rect x="39" y="12.9409" width="8.40261" height="17.658" transform="rotate(-25.3817 39 12.9409)" fill="#2BFC2B"/>
<path d="M25.4747 10.306C25.5133 9.71394 25.0646 9.20269 24.4725 9.16413C23.8804 9.12557 23.3691 9.57429 23.3306 10.1664C23.292 10.7585 23.7407 11.2697 24.3328 11.3083C24.9249 11.3468 25.4362 10.8981 25.4747 10.306Z" fill="#293329"/>
<path d="M49.8637 25.0869C50.2653 24.6503 50.2369 23.9707 49.8003 23.5691C49.3636 23.1674 48.6841 23.1958 48.2824 23.6325C47.8808 24.0691 47.9091 24.7487 48.3458 25.1503C48.7824 25.552 49.462 25.5236 49.8637 25.0869Z" fill="#293329"/>
<path d="M5.87386 23.2268C5.28111 23.2514 4.82048 23.7519 4.84519 24.3446C4.86979 24.9374 5.37027 25.398 5.96302 25.3734C6.55577 25.3488 7.0164 24.8483 6.99169 24.2556C6.96709 23.6627 6.46661 23.2022 5.87386 23.2268Z" fill="#293329"/>
<path d="M54.892 25.0445L47.4187 9.62936C47.1594 9.09451 46.5155 8.87107 45.9807 9.13038L39.0292 12.5004C38.7724 12.6249 38.5754 12.8464 38.4819 13.1161C38.4567 13.1885 38.4403 13.2628 38.4311 13.3378H32.7639L29.6 10.9332C29.1267 10.5736 28.4516 10.6657 28.0918 11.139C27.7322 11.6123 27.8242 12.2875 28.2975 12.6472L35.1356 17.8438C35.4248 18.0856 35.6643 18.4053 35.7145 18.7878C35.7629 19.1578 35.6279 19.5273 35.4187 19.8281C34.9376 20.5201 34.0292 20.7988 33.2771 20.3572L27.7539 17.1196C27.3254 16.8684 26.7955 16.9481 26.4571 17.2798L10.4002 26.4048L15.3503 13.5823C17.2919 12.1152 19.5411 11.9313 19.616 11.9264C20.2058 11.921 20.6822 11.4411 20.6822 10.8501C20.6822 10.2556 20.2003 9.77373 19.6058 9.77373C19.0163 9.77373 16.5157 10.1129 14.281 11.698L7.63365 9.13189C7.07881 8.91769 6.45587 9.19387 6.24189 9.74838L0.0722225 25.73C-0.0305802 25.9963 -0.0233829 26.2925 0.092203 26.5535C0.207789 26.8145 0.42231 27.0189 0.688609 27.1217L6.90447 29.5213C6.6256 30.4063 6.68737 31.3495 7.083 32.1936C7.69101 33.4968 8.98867 34.3206 10.4196 34.3247C10.3679 34.5893 10.344 34.8584 10.354 35.1284C10.3709 35.5853 10.4769 36.0255 10.6692 36.4372C11.2728 37.7272 12.6145 38.4667 14.0696 38.4665C14.0766 38.4665 14.0836 38.466 14.0906 38.466C13.995 39.1635 14.1004 39.8747 14.4062 40.5284C14.8659 41.5087 15.7283 42.2361 16.7713 42.5239C17.1804 42.6371 17.6071 42.678 18.0304 42.6462C17.9759 43.2885 18.0944 43.9398 18.3675 44.5234C18.6882 45.2108 19.2045 45.7761 19.858 46.1571C20.8922 46.7645 22.1861 46.819 23.2705 46.312L30.246 42.9985L31.2128 44.053C31.9317 44.8373 32.9168 45.2351 33.9052 45.2351C34.7867 45.2351 35.6709 44.9184 36.3704 44.2772C37.1159 43.5938 37.512 42.6696 37.5492 41.7311C37.5544 41.7313 37.5595 41.732 37.5645 41.7322C37.6187 41.7345 37.6728 41.7357 37.7267 41.7357C38.6417 41.7357 39.511 41.3983 40.1897 40.7761C40.8986 40.1262 41.3152 39.2423 41.3672 38.2836C41.4081 38.2849 41.4489 38.2863 41.4896 38.2863C42.4046 38.2863 43.2739 37.9489 43.9526 37.3267C44.6713 36.6678 45.0905 35.7684 45.1328 34.7942C45.133 34.7897 45.1329 34.7852 45.133 34.7807C45.1375 34.7809 45.142 34.7814 45.1465 34.7817C45.2008 34.784 45.2548 34.7852 45.3089 34.7852C46.2239 34.7852 47.093 34.4478 47.7717 33.8256C48.4905 33.1667 48.9096 32.2673 48.9521 31.2931C48.982 30.6024 48.8192 29.9331 48.4875 29.3456L54.3926 26.4828C54.9278 26.2232 55.1513 25.5795 54.892 25.0445ZM7.86246 11.5277L13.0612 13.5347L7.66684 27.5081L2.46805 25.5012L7.86246 11.5277ZM22.353 44.3647C21.5822 44.7252 20.6508 44.3568 20.3069 43.5874C20.1253 43.1813 20.1265 42.711 20.3125 42.3066C20.488 41.9251 20.7769 41.7283 21.1269 41.5266L25.5878 38.949C26.0895 38.6594 26.2704 37.9986 25.989 37.4937C25.7077 36.9887 25.0512 36.7947 24.5408 37.0685L18.3851 40.3686C17.6076 40.7161 16.6673 40.3506 16.3339 39.5663C16.1631 39.1647 16.171 38.7046 16.3548 38.3086C16.53 37.9313 16.8186 37.7232 17.1698 37.5271L23.403 34.0346C23.911 33.7501 24.0994 33.0876 23.82 32.578C23.5404 32.068 22.8789 31.8722 22.3664 32.1481L15.0255 36.1018C14.3887 36.3913 13.5527 36.4313 12.9792 35.9766C12.3803 35.5019 12.402 34.6777 12.8026 34.0829C13.0595 33.7012 13.4109 33.4801 13.8046 33.2635L21.1447 29.2315C21.6538 28.9518 21.8486 28.2932 21.5755 27.7816C21.3025 27.2702 20.6464 27.0653 20.131 27.3327L11.0657 32.0343C10.3133 32.3784 9.40224 32.0427 9.0427 31.3018C8.84419 30.8929 8.83656 30.4125 9.02208 29.9974C9.19717 29.6056 9.49215 29.3964 9.85213 29.1924L27.2377 19.3124L32.1878 22.214C33.5091 22.9896 35.2253 22.8631 36.4144 21.8966C37.5273 20.9921 38.1401 19.4856 37.7637 18.0748C37.5616 17.3177 37.0788 16.619 36.4562 16.144L35.5965 15.4906H39.2827L43.3384 23.8564C42.8461 23.5799 42.2927 23.4199 41.7121 23.3947C40.7383 23.3526 39.8056 23.692 39.0868 24.3509C38.5956 24.8011 38.2447 25.3636 38.058 25.9854C37.6641 25.8199 37.24 25.7234 36.8003 25.7043C35.8258 25.6619 34.8939 26.0015 34.175 26.6605C33.4562 27.3194 33.0371 28.2187 32.9948 29.1929C32.9672 29.8275 33.1026 30.4439 33.3818 30.9955C32.8604 31.1513 32.3768 31.424 31.9637 31.8026C31.245 32.4616 30.8258 33.3609 30.7835 34.3351C30.7459 35.1989 31.0093 36.0295 31.5287 36.7077C31.0334 36.8626 30.5635 37.1252 30.1563 37.4985C29.114 38.4539 28.7554 39.8795 29.1048 41.1577L22.353 44.3647ZM34.9159 42.6904C34.3071 43.2484 33.3578 43.2072 32.7996 42.5984L31.5188 41.2013C30.9606 40.5925 31.002 39.6431 31.6107 39.085C31.8978 38.8218 32.2605 38.6919 32.6223 38.6919C33.0279 38.6919 33.4321 38.8552 33.7271 39.1769L35.0079 40.5742C35.566 41.1829 35.5247 42.1323 34.9159 42.6904ZM38.7353 39.1892C38.1264 39.7473 37.177 39.706 36.619 39.0972L33.3264 35.5055C32.8615 34.9983 32.8059 34.2126 33.1957 33.6452C33.654 32.9779 34.5908 32.7976 35.2634 33.2497C35.2634 33.2497 38.9351 37.2474 39.0085 37.3155C39.1585 37.565 39.2325 37.8526 39.2197 38.1501C39.2023 38.5498 39.0302 38.9188 38.7353 39.1892ZM42.4982 35.7396C42.2032 36.0101 41.8188 36.1491 41.4209 36.1321C41.1235 36.1192 40.8432 36.0203 40.6079 35.8492C40.5464 35.7703 35.5377 30.3634 35.5377 30.3634C34.9866 29.7622 35.0269 28.7979 35.6296 28.2471C36.2326 27.6961 37.1935 27.7363 37.7459 28.339L42.5901 33.6234C42.8605 33.9184 42.9998 34.3009 42.9825 34.7007C42.9651 35.1004 42.7932 35.4694 42.4982 35.7396ZM46.3176 32.2384C45.7156 32.7902 44.7528 32.7482 44.2013 32.1465L40.4495 28.0537C39.8983 27.4525 39.9387 26.4883 40.5415 25.9375C41.1444 25.3865 42.1053 25.4267 42.6577 26.0295L46.4096 30.1223C46.9613 30.7241 46.9194 31.6868 46.3176 32.2384ZM47.4709 27.446L40.9368 13.9679L45.9512 11.537L52.4854 25.0151L47.4709 27.446Z" fill="#293329"/>
</g>
<defs>
<clipPath id="clip0">
<rect width="55" height="55" fill="white" transform="translate(0 0.339111)"/>
</clipPath>
</defs>
</svg>
